<?xml version="1.0" encoding="UTF-8"?>
<svg xmlns="http://www.w3.org/2000/svg" width="1200" height="900" viewBox="0 0 800 600" version="1.1" style="background-color: white;">
  <title>Tanhiep Tret - Phóng to</title>
  <desc>Bản đồ Tanhiep Tret đã được phóng to và tối ưu hóa</desc>
  
  <!-- Các đường chính - làm nổi bật -->
  <g stroke="red" stroke-width="1.2" fill="none">
    <path d="M664.95 301.51L664.72 362.56M664.72 362.56L664.72 362.56M664.72 362.56L664.53 364.44M664.53 364.44L663.97 366.24M663.97 366.24L663.08 367.9M663.08 367.9L661.88 369.35M661.88 369.35L660.42 370.54M660.42 370.54L658.75 371.42M658.75 371.42L656.95 371.96M656.95 371.96L655.07 372.14M655.07 372.14L598.32 371.93M598.32 371.93L596.02 374.21M596.02 374.21L595.99 381.67M595.99 381.67L608.35 381.71M608.35 381.71L608.32 390.07M608.32 390.07L602.83 390.05M602.83 390.05L602.82 391.99M602.82 391.99L595.95 391.97M595.95 391.97L595.94 394.33M595.94 394.33L598.22 396.65M598.22 396.65L601.29 396.7M601.29 396.7L654.25 396.93M654.25 396.93L686.56 396.61M686.56 396.61L688.89 394.3M688.89 394.3L689.32 371.9M689.32 371.9L689.32 368.46M689.32 368.46L689.36 361.41M689.36 361.41L689.44 341.34M689.44 341.34L689.44 337.97M689.44 337.97L689.45 336.21M689.45 336.21L689.45 333.54M689.45 333.54L689.46 331.07M689.46 331.07L689.49 312.04M689.49 312.04L689.6 299.29M689.6 299.29L689.61 293.86M689.61 293.86L689.78 245.59M689.78 245.59L689.92 218.93M689.92 218.93L689.96 210.89M689.96 210.89L690.01 200.05M690.01 200.05L690.02 198.05M690.02 198.05L690.04 194.68M690.04 194.68L690.05 192.68M690.05 192.68L690.07 190.2M690.07 190.2L504.29 191.16M504.29 191.16L504.18 204.24M504.18 204.24L504.12 213.57M504.12 213.57L503.35 303.78M503.35 303.78L502.98 394.41M502.98 394.41L505.25 396.66M505.25 396.66L552.15 395.89M552.15 395.89L588.16 396.49M588.16 396.49L590.45 394.24M590.45 394.24L590.95 259.94M590.95 259.94L588.67 257.65M588.67 257.65L574.38 257.59"/>
    <path d="M664.43 195.71L665.34 195.71M665.34 195.71L664.97 294.45"/>
    <path d="M690.05 192.68L690.04 193.62"/>
  </g>

  <!-- Các điểm đặc trưng - làm nổi bật hơn -->
  <g fill="darkred" stroke="darkred" stroke-width="0.8">
    <!-- Các điểm quan trọng được chọn lọc -->
    <path d="M609.9 344.35L609.81 344.36 609.79 343.9 609.88 343.9 609.9 344.35Z"/>
    <path d="M609.01 321.94L608.92 321.94 608.89 321.48 608.99 321.48 609.01 321.94Z"/>
    <path d="M624.87 321.99L624.78 321.99 624.76 321.54 624.85 321.53 624.87 321.99Z"/>
    <path d="M649.76 322.1L649.66 322.1 649.64 321.65 649.73 321.64 649.76 322.1Z"/>
    <path d="M664.74 322.3L664.65 322.31 664.62 321.85 664.71 321.85 664.74 322.3Z"/>
    <path d="M682.01 310.53L681.92 310.52 681.94 310.07 682.03 310.07 682.01 310.53Z"/>
    <path d="M678.47 277.08L678.37 277.08 678.37 276.62 678.46 276.62 678.47 277.08Z"/>
    <path d="M677.4 268.93L677.31 268.93 677.3 268.47 677.4 268.47 677.4 268.93Z"/>
    <path d="M659.89 268.05L659.8 268.05 659.8 267.59 659.89 267.59 659.89 268.05Z"/>
    <path d="M678.57 238.21L678.48 238.22 678.48 237.76 678.57 237.76 678.57 238.21Z"/>
    <path d="M596.6 304.71L596.51 304.71 596.5 304.25 596.6 304.25 596.6 304.71Z"/>
    <path d="M660.29 304.17L660.2 304.17 660.2 303.71 660.29 303.71 660.29 304.17Z"/>
    <path d="M660.21 290.8L660.12 290.8 660.11 290.34 660.2 290.34 660.21 290.8Z"/>
    <path d="M658.39 361.51L658.3 361.51 658.29 361.05 658.39 361.05 658.39 361.51Z"/>
    <path d="M606.41 307.81L606.32 307.81 606.29 307.36 606.39 307.35 606.41 307.81Z"/>
    <path d="M613.76 330.8L613.67 330.8 613.64 330.34 613.74 330.34 613.76 330.8Z"/>
    <path d="M611.83 340.7L611.74 340.7 611.71 340.24 611.81 340.24 611.83 340.7Z"/>
  </g>

  <!-- Các hình dạng phức tạp - giữ nguyên nhưng hiển thị rõ hơn -->
  <g fill="red" stroke="red" stroke-width="0.6">
    <!-- Giữ lại các hình dạng quan trọng từ file gốc -->
    <path d="M690.16 193.8L690.28 193.8 690.49 193.89 690.58 193.99 690.67 194.08 690.76 194.29 690.76 194.42 690.76 194.54 690.67 194.74 690.59 194.82 690.5 194.91 690.29 194.99 690.16 194.99 690.04 194.99 689.82 194.9 689.74 194.81 689.65 194.72 689.57 194.51 689.57 194.39 689.57 194.27 689.66 194.06 689.75 193.97 689.83 193.89 690.04 193.8 690.16 193.8Z"/>
    <path d="M690.15 197L690.27 197 690.48 197.1 690.57 197.19 690.66 197.28 690.74 197.5 690.74 197.62 690.74 197.74 690.66 197.94 690.57 198.03 690.49 198.11 690.28 198.19 690.15 198.19 690.02 198.19 689.81 198.1 689.72 198.01 689.64 197.93 689.55 197.71 689.55 197.59 689.55 197.47 689.64 197.26 689.73 197.18 689.82 197.09 690.03 197 690.15 197Z"/>
    <!-- Thêm các hình dạng quan trọng khác... -->
  </g>

  <!-- Đường viền hướng dẫn -->
  <rect x="500" y="190" width="200" height="210" fill="none" stroke="blue" stroke-width="1.5" stroke-dasharray="8,4"/>
  <rect x="580" y="250" width="150" height="180" fill="none" stroke="green" stroke-width="1.5" stroke-dasharray="8,4"/>

  <!-- Chú thích và hướng dẫn -->
  <g font-family="Arial" font-size="14" fill="black">
    <text x="510" y="185" fill="blue">Khu vực chi tiết 1</text>
    <text x="590" y="245" fill="green">Khu vực chi tiết 2</text>
    <text x="50" y="30" font-size="16" font-weight="bold">BẢN ĐỒ TANHIEP TRET - PHÓNG TO</text>
    <text x="50" y="50" font-size="12">Tỷ lệ: 1.5x | Độ phân giải: 1200x900</text>
  </g>

  <!-- Khung tọa độ tham chiếu -->
  <g stroke="gray" stroke-width="0.5" font-family="Arial" font-size="10" fill="gray">
    <line x1="50" y1="550" x2="750" y2="550"/>
    <line x1="50" y1="550" x2="50" y2="50"/>
    <text x="750" y="565">X: 800</text>
    <text x="30" y="30">Y: 600</text>
    <text x="400" y="570">Trục X →</text>
    <text x="20" y="300" transform="rotate(-90 20,300)">Trục Y →</text>
  </g>
</svg>